# This file uses centimeters as units for non-parametric coordinates.

mtllib House.mtl
g default
v -0.500000 -0.797355 14.032218
v 4.744196 -0.797355 14.032218
v -0.500000 2.398042 14.032218
v 4.744196 2.398042 14.032218
v -0.500000 2.398042 9.737358
v 4.744196 2.398042 9.737358
v -0.500000 -0.797355 9.737358
v 4.744196 -0.797355 9.737358
v -0.500000 -0.797418 11.174158
v -0.500000 -0.797418 12.595418
v -0.500000 1.374012 12.595418
v -0.500000 1.374012 11.174158
v -0.379320 -0.797418 11.174158
v -0.379320 -0.797418 12.595418
v -0.379320 1.374012 12.595418
v -0.379320 1.374012 11.174158
v 2.198385 -0.797355 14.032218
v 2.198385 -0.797355 9.737358
v 2.198385 2.398042 9.737358
v 2.198385 2.398042 14.032218
v 2.718638 1.800369 14.032218
v 2.718638 0.571553 14.032218
v 4.223944 0.571553 14.032218
v 4.223944 1.800369 14.032218
v 2.718638 0.571553 9.737358
v 2.718638 1.800369 9.737358
v 4.223944 1.800369 9.737358
v 4.223944 0.571553 9.737358
v 2.718638 1.800369 13.911046
v 2.718638 0.571553 13.911046
v 4.223944 0.571553 13.911046
v 4.223944 1.800369 13.911046
v 2.718638 0.571553 9.900115
v 2.718638 1.800369 9.900115
v 4.223944 1.800369 9.900115
v 4.223944 0.571553 9.900115
v 0.042903 1.856754 9.737358
v 1.655483 1.856754 9.737358
v 1.655483 0.500954 9.737358
v 0.042903 0.500954 9.737358
v 0.042903 0.500954 14.032218
v 1.655483 0.500954 14.032218
v 1.655483 1.856754 14.032218
v 0.042903 1.856754 14.032218
v 0.042903 0.500954 13.919095
v 1.655483 0.500954 13.919095
v 1.655483 1.856754 13.919095
v 0.042903 1.856754 13.919095
v 0.042903 1.856754 9.854296
v 1.655483 1.856754 9.854296
v 1.655483 0.500954 9.854296
v 0.042903 0.500954 9.854296
v -0.500000 2.398042 11.884789
v 4.744196 2.398042 11.884789
v -0.663969 2.398042 11.884789
v 4.908165 2.398042 11.884789
v 4.908165 2.398042 9.603072
v 2.203156 2.398042 9.603072
v -0.663969 2.398042 9.603072
v 2.203156 2.398042 14.166504
v 4.908165 2.398042 14.166504
v -0.663969 2.398042 14.166504
v -0.663969 3.782166 11.884789
v 4.908165 3.782166 11.884789
v 4.908165 2.507709 9.603072
v 2.203156 2.507709 9.603072
v -0.663969 2.507709 9.603072
v 2.203156 2.507709 14.166504
v 4.908165 2.507709 14.166504
v -0.663969 2.507709 14.166504
vt 0.202941 0.426910
vt 0.202865 0.004959
vt 0.400850 0.426874
vt 0.004993 0.209832
vt 0.400811 0.209761
vt 0.005032 0.426945
vt 0.004957 0.004994
vt 0.400774 0.004924
vt 0.399795 0.619657
vt 0.399795 0.426875
vt 0.725024 0.619656
vt 0.725024 0.426875
vt 0.725024 0.823992
vt 0.399795 0.823992
vt 0.529464 0.233767
vt 0.520325 0.233767
vt 0.529463 0.126142
vt 0.520325 0.126142
vt 0.541932 0.233767
vt 0.532794 0.233767
vt 0.541932 0.126142
vt 0.532793 0.126142
vt 0.661635 0.295762
vt 0.661635 0.181773
vt 0.670811 0.295762
vt 0.670811 0.181772
vt 0.720685 0.139453
vt 0.720685 0.253443
vt 0.711509 0.139453
vt 0.711509 0.253443
vt 0.699041 0.131330
vt 0.699041 0.017341
vt 0.711366 0.131330
vt 0.711366 0.017341
vt 0.698897 0.017340
vt 0.698897 0.131330
vt 0.686572 0.017340
vt 0.686572 0.131330
vt 0.686572 0.253443
vt 0.686572 0.131330
vt 0.695139 0.253443
vt 0.695139 0.131330
vt 0.707607 0.131330
vt 0.707607 0.253443
vt 0.699041 0.131330
vt 0.699041 0.253443
vt 0.711510 0.139453
vt 0.711509 0.017340
vt 0.720365 0.139453
vt 0.720365 0.017340
vt 0.732833 0.017340
vt 0.732833 0.139453
vt 0.723978 0.017340
vt 0.723978 0.139453
vt 0.576734 0.017340
vt 0.414120 0.017340
vt 0.576734 0.004924
vt 0.403951 0.004924
vt 0.739349 0.017340
vt 0.403951 0.209761
vt 0.749518 0.004924
vt 0.414120 0.210122
vt 0.749518 0.209761
vt 0.414120 0.414458
vt 0.739349 0.210122
vt 0.403951 0.426874
vt 0.739349 0.414458
vt 0.576734 0.426874
vt 0.749518 0.426874
vt 0.576734 0.414458
vt 0.753071 0.004924
vt 0.995043 0.004924
vt 0.753071 0.330153
vt 0.995043 0.167538
vt 0.995043 0.330153
vt 0.096393 0.988468
vt 0.096393 0.824036
vt 0.204018 0.988468
vt 0.204018 0.824036
vt 0.004957 0.113646
vt 0.004961 0.004989
vt 0.004957 0.221128
vt 0.004961 0.329785
vt 0.416420 0.342569
vt 0.493965 0.233767
vt 0.658392 0.342569
vt 0.416420 0.179955
vt 0.658396 0.233767
vt 0.493965 0.126142
vt 0.416420 0.017340
vt 0.658392 0.017340
vt 0.658396 0.126142
vt 0.607605 0.219195
vt 0.607605 0.126142
vt 0.616780 0.219195
vt 0.616780 0.126142
vt 0.604312 0.126142
vt 0.604312 0.219195
vt 0.595136 0.126142
vt 0.595136 0.219195
vt 0.507712 0.126142
vt 0.507712 0.219194
vt 0.495387 0.126142
vt 0.495387 0.219194
vt 0.507856 0.219195
vt 0.507856 0.126142
vt 0.520181 0.219195
vt 0.520181 0.126142
vt 0.578765 0.126142
vt 0.578765 0.228810
vt 0.570199 0.126142
vt 0.570199 0.228810
vt 0.582667 0.228810
vt 0.582667 0.126142
vt 0.591234 0.228810
vt 0.591234 0.126142
vt 0.545262 0.228810
vt 0.545262 0.126142
vt 0.554117 0.228810
vt 0.554117 0.126142
vt 0.566585 0.126142
vt 0.566585 0.228810
vt 0.557730 0.126142
vt 0.557730 0.228810
vt 0.004957 0.621962
vt 0.013261 0.621962
vt 0.004957 0.794745
vt 0.109770 0.794745
vt 0.013261 0.967528
vt 0.004957 0.967528
vt 0.109770 0.426928
vt 0.109770 0.599711
vt 0.101465 0.426928
vt 0.004957 0.599711
vt 0.101465 0.772494
vt 0.109770 0.772494
vt 0.505316 0.937982
vt 0.412264 0.937982
vt 0.505316 0.823992
vt 0.412264 0.823992
vt 0.600908 0.937982
vt 0.507856 0.937982
vt 0.600908 0.823992
vt 0.507856 0.823992
vt 0.670774 0.017341
vt 0.670774 0.181772
vt 0.661635 0.017341
vt 0.661635 0.181772
vt 0.674104 0.181772
vt 0.674104 0.017341
vt 0.683242 0.181772
vt 0.683242 0.017341
vt 0.204454 0.946149
vt 0.204454 0.824036
vt 0.307122 0.946149
vt 0.307122 0.824036
vt 0.308359 0.946149
vt 0.308359 0.824036
vt 0.411027 0.946149
vt 0.411027 0.824036
vt 0.728134 0.619656
vt 0.831795 0.580260
vt 0.970106 0.619656
vt 0.728134 0.426874
vt 0.924847 0.580260
vt 0.826449 0.660768
vt 0.831795 0.466271
vt 0.924847 0.466271
vt 0.929117 0.660768
vt 0.826449 0.782880
vt 0.970106 0.426874
vt 0.970106 0.823992
vt 0.728134 0.823992
vt 0.929117 0.782880
vt 0.396551 0.619700
vt 0.154580 0.619700
vt 0.292891 0.580304
vt 0.298237 0.660812
vt 0.199838 0.580304
vt 0.292891 0.466314
vt 0.396552 0.824036
vt 0.195569 0.660812
vt 0.154580 0.426918
vt 0.396551 0.426918
vt 0.298237 0.782924
vt 0.195569 0.782924
vt 0.199838 0.466314
vt 0.154580 0.824036
vt 0.981654 0.330151
vt 0.981654 0.534990
vt 0.973350 0.330151
vt 0.973350 0.534990
vt 0.981654 0.752105
vt 0.973350 0.752105
vt 0.981662 0.534989
vt 0.981662 0.330153
vt 0.989967 0.534989
vt 0.989967 0.330153
vt 0.989967 0.752102
vt 0.981662 0.752102
vn 0.000000 0.000000 1.000000
vn 0.000000 0.000000 1.000000
vn 0.000000 0.000000 1.000000
vn 0.000000 0.000000 1.000000
vn 0.000000 0.996625 -0.082085
vn 0.000000 0.999142 0.041428
vn 0.000000 0.873044 -0.487641
vn 0.000000 0.873044 -0.487641
vn 0.000000 0.873044 -0.487641
vn 0.000000 0.000000 -1.000000
vn 0.000000 0.000000 -1.000000
vn 0.000000 0.000000 -1.000000
vn 0.000000 0.000000 -1.000000
vn 0.000000 -1.000000 0.000000
vn 0.000000 -1.000000 0.000000
vn 0.000000 -1.000000 0.000000
vn 0.000000 -1.000000 0.000000
vn 1.000000 0.000000 0.000000
vn 1.000000 -0.000000 0.000000
vn 1.000000 -0.000000 0.000000
vn 1.000000 -0.000000 0.000000
vn 1.000000 0.000000 0.000000
vn -1.000000 0.000000 0.000000
vn -1.000000 0.000000 0.000000
vn -1.000000 0.000000 0.000000
vn -1.000000 0.000000 0.000000
vn 1.000000 0.000000 0.000000
vn 0.000000 0.000000 0.000000
vn 1.000000 0.000000 0.000000
vn 0.000000 0.000000 0.000000
vn -1.000000 0.000000 0.000000
vn -1.000000 0.000000 0.000000
vn -1.000000 0.000000 0.000000
vn -1.000000 0.000000 0.000000
vn -1.000000 0.000000 0.000000
vn -1.000000 0.000000 0.000000
vn -1.000000 0.000000 0.000000
vn -1.000000 0.000000 0.000000
vn -1.000000 0.000000 0.000000
vn -1.000000 0.000000 0.000000
vn -1.000000 0.000000 0.000000
vn -1.000000 0.000000 0.000000
vn -1.000000 0.000000 0.000000
vn 0.000000 1.000000 0.000000
vn 0.000000 1.000000 0.000000
vn 0.000000 1.000000 0.000000
vn 0.000000 1.000000 0.000000
vn 0.000000 0.000000 -1.000000
vn 0.000000 0.000000 -1.000000
vn 0.000000 0.000000 -1.000000
vn 0.000000 0.000000 -1.000000
vn 0.000000 -1.000000 0.000000
vn 0.000000 -1.000000 0.000000
vn 0.000000 -1.000000 0.000000
vn 0.000000 -1.000000 0.000000
vn 0.000000 0.000000 1.000000
vn 0.000000 0.000000 1.000000
vn 0.000000 0.000000 1.000000
vn 0.000000 0.000000 1.000000
vn 0.000000 -1.000000 0.000000
vn 0.000000 -1.000000 0.000000
vn 0.000000 0.000000 -1.000000
vn 0.000000 0.000000 -1.000000
vn 0.000000 0.000000 -1.000000
vn 0.000000 0.000000 -1.000000
vn 0.000000 0.000000 1.000000
vn 0.000000 0.000000 1.000000
vn 0.000000 0.000000 1.000000
vn 0.000000 0.000000 1.000000
vn 0.000005 0.000000 1.000000
vn 0.000004 0.000000 1.000000
vn 0.000002 0.000000 1.000000
vn -0.000003 0.000000 1.000000
vn 0.000000 0.000000 1.000000
vn 0.000000 0.000000 1.000000
vn 0.000000 0.000000 1.000000
vn 0.000000 0.000000 1.000000
vn -0.000002 0.000000 1.000000
vn -0.000001 0.000000 1.000000
vn -0.000002 0.000000 1.000000
vn 0.000000 0.000000 1.000000
vn 0.000000 0.000000 1.000000
vn 0.000000 0.000000 1.000000
vn 0.000000 0.000000 1.000000
vn 0.000000 0.000000 1.000000
vn 0.000000 0.000000 -1.000000
vn 0.000000 0.000000 -1.000000
vn 0.000000 0.000000 -1.000000
vn 0.000000 0.000000 -1.000000
vn 0.000000 0.000000 -1.000000
vn 0.000000 0.000000 -1.000000
vn 0.000000 0.000000 -1.000000
vn 0.000000 0.000000 -1.000000
vn 0.000000 0.000000 -1.000000
vn -0.000000 0.000000 -1.000000
vn -0.000001 0.000000 -1.000000
vn -0.000001 0.000000 -1.000000
vn 0.000000 0.000000 -1.000000
vn 0.000000 0.000000 -1.000000
vn 0.000000 0.000000 -1.000000
vn 0.000000 0.000000 -1.000000
vn 1.000000 0.000000 0.000000
vn 1.000000 0.000000 0.000000
vn 1.000000 0.000000 0.000000
vn 1.000000 0.000000 0.000000
vn 0.000000 1.000000 0.000000
vn 0.000000 1.000000 0.000000
vn 0.000000 1.000000 0.000000
vn 0.000000 1.000000 0.000000
vn -1.000000 0.000000 0.000000
vn -1.000000 0.000000 0.000000
vn -1.000000 0.000000 0.000000
vn -1.000000 0.000000 0.000000
vn 0.000000 -1.000000 0.000000
vn 0.000000 -1.000000 0.000000
vn 0.000000 -1.000000 0.000000
vn 0.000000 -1.000000 0.000000
vn 1.000000 0.000000 0.000000
vn 1.000000 0.000000 0.000000
vn 1.000000 0.000000 0.000000
vn 1.000000 0.000000 0.000000
vn 0.000000 -1.000000 0.000000
vn 0.000000 -1.000000 0.000000
vn 0.000000 -1.000000 0.000000
vn 0.000000 -1.000000 0.000000
vn -1.000000 0.000000 0.000000
vn -1.000000 0.000000 0.000000
vn -1.000000 0.000000 0.000000
vn -1.000000 0.000000 0.000000
vn 0.000000 1.000000 0.000000
vn 0.000000 1.000000 0.000000
vn 0.000000 1.000000 0.000000
vn 0.000000 1.000000 0.000000
vn 0.000000 0.000000 -1.000000
vn 0.000000 0.000000 -1.000000
vn 0.000000 0.000000 -1.000000
vn 0.000000 0.000000 -1.000000
vn -0.000002 0.000000 -1.000000
vn -0.000002 0.000000 -1.000000
vn -0.000001 0.000000 -1.000000
vn 0.000001 0.000000 -1.000000
vn 0.000000 0.000000 -1.000000
vn 0.000000 0.000000 -1.000000
vn 0.000000 0.000000 -1.000000
vn 0.000000 0.000000 -1.000000
vn 0.000001 0.000000 -1.000000
vn 0.000001 0.000000 -1.000000
vn 0.000001 0.000000 -1.000000
vn 0.000000 0.000000 -1.000000
vn 0.000000 0.000000 1.000000
vn 0.000000 0.000000 1.000000
vn 0.000000 0.000000 1.000000
vn 0.000000 0.000000 1.000000
vn -0.000002 0.000000 1.000000
vn -0.000001 0.000000 1.000000
vn -0.000002 0.000000 1.000000
vn 0.000000 0.000000 1.000000
vn 0.000000 0.000000 1.000000
vn 0.000000 0.000000 1.000000
vn 0.000000 0.000000 1.000000
vn 0.000000 0.000000 1.000000
vn 0.000004 0.000000 1.000000
vn 0.000004 0.000000 1.000000
vn 0.000002 0.000000 1.000000
vn 0.000000 0.000000 1.000000
vn 0.000000 1.000000 0.000000
vn 0.000000 1.000000 0.000000
vn 0.000000 1.000000 0.000000
vn 0.000000 1.000000 0.000000
vn -1.000000 0.000000 0.000000
vn -1.000000 0.000000 0.000000
vn -1.000000 0.000000 0.000000
vn -1.000000 0.000000 0.000000
vn 0.000000 -1.000000 0.000000
vn 0.000000 -1.000000 0.000000
vn 0.000000 -1.000000 0.000000
vn 0.000000 -1.000000 0.000000
vn 1.000000 0.000000 0.000000
vn 1.000000 0.000000 0.000000
vn 1.000000 0.000000 0.000000
vn 1.000000 0.000000 0.000000
vn 0.000000 -1.000000 0.000000
vn 0.000000 -1.000000 0.000000
vn 0.000000 -1.000000 0.000000
vn 0.000000 -1.000000 0.000000
vn -1.000000 0.000000 0.000000
vn -1.000000 0.000000 0.000000
vn -1.000000 0.000000 0.000000
vn -1.000000 0.000000 0.000000
vn 0.000000 1.000000 0.000000
vn 0.000000 1.000000 0.000000
vn 0.000000 1.000000 0.000000
vn 0.000000 1.000000 0.000000
vn 1.000000 0.000000 0.000000
vn 1.000000 0.000000 0.000000
vn 1.000000 0.000000 0.000000
vn 1.000000 0.000000 0.000000
vn 0.000000 0.873044 0.487641
vn 0.000000 0.873044 0.487641
vn 0.000000 0.873044 0.487641
vn -0.000003 -1.000000 0.000000
vn -0.000000 -1.000000 -0.000000
vn -0.000003 -1.000000 -0.000000
vn -0.000000 -1.000000 -0.000000
vn 0.000000 -1.000000 0.000003
vn 0.000000 -1.000000 0.000003
vn 0.000000 -1.000000 -0.000001
vn 0.000000 -1.000000 -0.000001
vn 0.000000 -1.000000 0.000001
vn 0.000000 -1.000000 0.000000
vn 0.000000 -1.000000 0.000001
vn 0.000000 -1.000000 0.000000
vn 0.000003 -1.000000 0.000000
vn 0.000003 -1.000000 -0.000000
vn 0.000000 -1.000000 -0.000000
vn 0.000000 -1.000000 -0.000000
vn 0.000000 -1.000000 -0.000002
vn 0.000000 -1.000000 -0.000000
vn 0.000000 -1.000000 -0.000002
vn 0.000000 -1.000000 0.000000
vn -0.000003 -1.000000 0.000000
vn -0.000003 -1.000000 0.000000
vn -0.000000 -1.000000 0.000000
vn -0.000000 -1.000000 0.000000
vn 0.000003 -1.000000 0.000000
vn 0.000000 -1.000000 0.000000
vn 0.000003 -1.000000 0.000000
vn 0.000000 -1.000000 0.000000
vn 0.000000 -1.000000 0.000000
vn 0.000000 -1.000000 -0.000000
vn 0.000000 -1.000000 -0.000001
vn 0.000000 -1.000000 -0.000001
vn 1.000000 0.000000 0.000000
vn 1.000000 0.000000 0.000000
vn 1.000000 0.000000 0.000000
vn 1.000000 0.000000 0.000000
vn 0.000000 0.000000 -1.000000
vn 0.000000 0.000000 -1.000000
vn 0.000000 0.000000 -1.000000
vn 0.000000 0.000000 -1.000000
vn 0.000000 0.000000 -1.000000
vn 0.000000 0.000000 -1.000000
vn 0.000000 0.000000 -1.000000
vn 0.000000 0.000000 -1.000000
vn -1.000000 0.000000 0.000000
vn -1.000000 0.000000 0.000000
vn -1.000000 0.000000 0.000000
vn -1.000000 0.000000 0.000000
vn 0.000000 0.000000 1.000000
vn 0.000000 0.000000 1.000000
vn 0.000000 0.000000 1.000000
vn 0.000000 0.000000 1.000000
vn 1.000000 0.000000 0.000000
vn 1.000000 0.000000 0.000000
vn 1.000000 0.000000 0.000000
vn 1.000000 0.000000 0.000000
vn -1.000000 0.000000 0.000000
vn -1.000000 0.000000 0.000000
vn -1.000000 0.000000 0.000000
vn -1.000000 0.000000 0.000000
vn 0.000000 0.000000 1.000000
vn 0.000000 0.000000 1.000000
vn 0.000000 0.000000 1.000000
vn 0.000000 0.000000 1.000000
s 1
g pCube1
usemtl phong2SG
f 29/137/1 30/138/2 32/139/3
f 32/139/3 30/138/2 31/140/4
s 2
f 63/1/5 64/2/6 67/3/7
f 67/3/7 64/2/6 66/5/8
f 64/2/6 65/8/9 66/5/8
s 3
f 33/141/10 34/142/11 36/143/12
f 36/143/12 34/142/11 35/144/13
s 4
f 18/9/14 8/10/15 17/11/16
f 17/11/16 8/10/15 2/12/17
s 5
f 8/71/18 6/72/19 2/73/20
f 6/72/19 54/74/21 2/73/20
f 54/74/21 4/75/22 2/73/20
s 6
f 16/76/23 13/77/24 15/78/25
f 15/78/25 13/77/24 14/79/26
s 7
f 9/80/27 7/81/28 10/82/29
f 10/82/29 7/81/28 1/83/30
s 8
f 3/84/31 11/85/32 1/86/33
f 1/86/33 11/85/32 10/88/34
s 9
f 5/90/35 12/89/36 53/87/37
f 3/84/38 53/87/37 11/85/39
f 53/87/37 12/89/36 11/85/39
s 10
f 5/90/40 7/91/41 12/89/42
f 12/89/42 7/91/41 9/92/43
s 11
f 13/15/44 9/16/45 14/17/46
f 14/17/46 9/16/45 10/18/47
s 12
f 10/145/48 11/146/49 14/147/50
f 14/147/50 11/146/49 15/148/51
s 13
f 12/19/52 16/20/53 11/21/54
f 11/21/54 16/20/53 15/22/55
s 14
f 12/149/56 9/150/57 16/151/58
f 16/151/58 9/150/57 13/152/59
s 4
f 7/14/60 18/9/14 1/13/61
f 1/13/61 18/9/14 17/11/16
s 15
f 49/153/62 50/154/63 52/155/64
f 52/155/64 50/154/63 51/156/65
s 16
f 45/157/66 46/158/67 48/159/68
f 48/159/68 46/158/67 47/160/69
s 17
f 17/161/70 22/162/71 20/163/72
f 20/163/72 22/162/71 21/165/73
s 18
f 17/161/74 2/164/75 22/162/76
f 22/162/76 2/164/75 23/167/77
s 19
f 2/164/78 4/171/79 23/167/80
f 23/167/80 4/171/79 24/168/81
s 20
f 4/171/82 20/163/83 24/168/84
f 24/168/84 20/163/83 21/165/85
s 21
f 18/175/86 19/176/87 25/177/88
f 25/177/88 19/176/87 26/179/89
s 22
f 19/176/90 6/183/91 26/179/92
f 26/179/92 6/183/91 27/187/93
s 23
f 8/184/94 28/180/95 6/183/96
f 6/183/96 28/180/95 27/187/97
s 24
f 8/184/98 18/175/99 28/180/100
f 28/180/100 18/175/99 25/177/101
s 25
f 21/93/102 22/94/103 29/95/104
f 29/95/104 22/94/103 30/96/105
s 26
f 22/23/106 23/24/107 30/25/108
f 30/25/108 23/24/107 31/26/109
s 27
f 23/97/110 24/98/111 31/99/112
f 31/99/112 24/98/111 32/100/113
s 28
f 24/27/114 21/28/115 32/29/116
f 32/29/116 21/28/115 29/30/117
s 29
f 25/101/118 26/102/119 33/103/120
f 33/103/120 26/102/119 34/104/121
s 30
f 26/31/122 27/32/123 34/33/124
f 34/33/124 27/32/123 35/34/125
s 31
f 27/105/126 28/106/127 35/107/128
f 35/107/128 28/106/127 36/108/129
s 32
f 28/35/130 25/36/131 36/37/132
f 36/37/132 25/36/131 33/38/133
s 33
f 5/188/134 19/176/135 37/186/136
f 37/186/136 19/176/135 38/182/137
s 34
f 18/175/138 39/178/139 19/176/140
f 19/176/140 39/178/139 38/182/141
s 35
f 18/175/142 7/181/143 39/178/144
f 39/178/144 7/181/143 40/185/145
s 36
f 7/181/146 5/188/147 40/185/148
f 40/185/148 5/188/147 37/186/149
s 37
f 1/173/150 17/161/151 41/170/152
f 41/170/152 17/161/151 42/166/153
s 38
f 17/161/154 20/163/155 42/166/156
f 42/166/156 20/163/155 43/169/157
s 39
f 20/163/158 3/172/159 43/169/160
f 43/169/160 3/172/159 44/174/161
s 40
f 1/173/162 41/170/163 3/172/164
f 3/172/164 41/170/163 44/174/165
s 41
f 41/39/166 42/40/167 45/41/168
f 45/41/168 42/40/167 46/42/169
s 42
f 42/109/170 43/110/171 46/111/172
f 46/111/172 43/110/171 47/112/173
s 43
f 43/43/174 44/44/175 47/45/176
f 47/45/176 44/44/175 48/46/177
s 44
f 44/113/178 41/114/179 48/115/180
f 48/115/180 41/114/179 45/116/181
s 45
f 37/47/182 38/48/183 49/49/184
f 49/49/184 38/48/183 50/50/185
s 46
f 38/117/186 39/118/187 50/119/188
f 50/119/188 39/118/187 51/120/189
s 47
f 39/51/190 40/52/191 51/53/192
f 51/53/192 40/52/191 52/54/193
s 48
f 40/121/194 37/122/195 52/123/196
f 52/123/196 37/122/195 49/124/197
s 2
f 69/7/198 64/2/6 68/4/199
f 64/2/6 63/1/5 68/4/199
f 68/4/199 63/1/5 70/6/200
s 49
f 54/55/201 6/56/202 56/57/203
f 56/57/203 6/56/202 57/58/204
s 50
f 19/62/205 58/60/206 6/56/207
f 6/56/207 58/60/206 57/58/208
s 51
f 19/62/209 5/64/210 58/60/211
f 58/60/211 5/64/210 59/66/212
s 52
f 53/70/213 55/68/214 5/64/215
f 5/64/215 55/68/214 59/66/216
s 53
f 20/65/217 4/59/218 60/63/219
f 60/63/219 4/59/218 61/61/220
s 54
f 54/55/221 56/57/222 4/59/223
f 4/59/223 56/57/222 61/61/224
s 55
f 53/70/225 3/67/226 55/68/227
f 55/68/227 3/67/226 62/69/228
s 56
f 20/65/229 60/63/230 3/67/231
f 3/67/231 60/63/230 62/69/232
s 57
f 57/125/233 65/126/234 56/127/235
f 56/127/235 65/126/234 64/128/236
s 58
f 57/189/237 58/190/238 65/191/239
f 65/191/239 58/190/238 66/192/240
s 59
f 58/190/241 59/193/242 66/192/243
f 66/192/243 59/193/242 67/194/244
s 60
f 59/131/245 55/132/246 67/133/247
f 55/132/246 63/134/248 67/133/247
s 61
f 60/195/249 61/196/250 68/197/251
f 68/197/251 61/196/250 69/198/252
s 62
f 61/130/253 56/127/254 69/129/255
f 56/127/254 64/128/256 69/129/255
s 63
f 62/136/257 70/135/258 55/132/259
f 55/132/259 70/135/258 63/134/260
s 64
f 62/200/261 60/195/262 70/199/263
f 70/199/263 60/195/262 68/197/264
