# This file uses centimeters as units for non-parametric coordinates.

mtllib Light.mtl
g default
v -6.024826 0.000166 -3.010421
v -6.224826 0.000166 -3.010421
v -6.324826 0.000166 -2.837216
v -6.224826 0.000166 -2.664010
v -6.024826 0.000166 -2.664010
v -5.924826 0.000166 -2.837216
v -6.024826 0.684551 -3.010421
v -6.224826 0.684551 -3.010421
v -6.324826 0.684551 -2.837216
v -6.224826 0.684551 -2.664010
v -6.024826 0.684551 -2.664010
v -5.924826 0.684551 -2.837216
v -6.124826 0.000166 -2.837216
v -5.976640 0.000166 -3.093882
v -6.273012 0.000166 -3.093882
v -6.273012 0.684551 -3.093882
v -5.976640 0.684551 -3.093882
v -6.421199 0.000166 -2.837216
v -6.421199 0.684551 -2.837216
v -6.273012 0.000166 -2.580549
v -6.273012 0.684551 -2.580549
v -5.976640 0.000166 -2.580549
v -5.976640 0.684551 -2.580549
v -5.828454 0.000166 -2.837216
v -5.828454 0.684551 -2.837216
v -6.324826 3.770910 -2.837216
v -6.224826 3.770910 -3.010424
v -6.024826 3.770910 -3.010421
v -5.924826 3.770910 -2.837216
v -6.024826 3.770910 -2.664010
v -6.224826 3.770910 -2.664007
v -6.324826 3.269287 -2.837216
v -6.224826 3.269287 -3.010421
v -6.024826 3.269287 -3.010421
v -5.924826 3.269287 -2.837216
v -6.024826 3.269287 -2.664010
v -6.224826 3.269287 -2.664010
v -6.944890 3.269287 -2.837216
v -6.330054 3.269287 -3.081791
v -6.330054 3.269287 -2.592640
v -6.365216 3.269287 -2.837216
v -6.887484 3.269287 -2.837216
v -6.282233 3.269287 -2.693485
v -6.282233 3.269287 -2.634259
v -6.282233 3.269287 -3.040172
v -6.282233 3.269287 -2.980947
v -6.365216 3.445274 -2.837216
v -6.887484 3.445274 -2.837216
v -6.282233 3.445274 -2.693485
v -6.282233 3.445274 -2.634259
v -6.282233 3.445274 -3.040172
v -6.282233 3.445274 -2.980947
v -6.867793 3.770910 -2.837216
v -6.944890 3.699547 -2.837216
v -6.330054 3.699547 -3.081791
v -6.330054 3.699547 -2.592640
v -6.892729 3.269287 -2.669301
v -6.685422 3.269287 -2.539258
v -6.646327 3.269287 -2.589520
v -6.851777 3.269287 -2.722271
v -6.685422 3.269287 -3.135173
v -6.892729 3.269287 -3.005130
v -6.851777 3.269287 -2.952160
v -6.646327 3.269287 -3.084912
v -6.851732 3.445274 -2.722127
v -6.646478 3.445274 -2.589501
v -6.646478 3.445274 -3.084931
v -6.851731 3.445274 -2.952305
v -6.647399 3.770910 -2.623552
v -6.846541 3.770910 -2.768805
v -6.685432 3.699547 -2.539256
v -6.892726 3.699547 -2.669291
v -6.892726 3.699547 -3.005141
v -6.685432 3.699547 -3.135175
v -6.647399 3.770910 -3.050880
v -6.846541 3.770910 -2.905627
v -6.053390 4.000166 -2.960947
v -6.196262 4.000166 -2.960947
v -6.124826 4.000166 -2.837216
v -6.267698 4.000166 -2.837216
v -6.196262 4.000166 -2.713484
v -6.053390 4.000166 -2.713484
v -5.981954 4.000166 -2.837216
v -6.267698 3.770910 -2.837216
v -6.196262 3.770910 -2.960949
v -6.053390 3.770910 -2.960947
v -5.981954 3.770910 -2.837216
v -6.053390 3.770910 -2.713484
v -6.196262 3.770910 -2.713482
vt 0.806009 0.583357
vt 0.806009 0.518569
vt 0.862117 0.550963
vt 0.778972 0.598967
vt 0.778972 0.502959
vt 0.862117 0.486175
vt 0.862117 0.615752
vt 0.862117 0.646971
vt 0.862117 0.454956
vt 0.918226 0.518569
vt 0.918226 0.583358
vt 0.945262 0.598967
vt 0.945262 0.502960
vt 0.707236 0.615073
vt 0.707236 0.661355
vt 0.667154 0.638214
vt 0.667154 0.684497
vt 0.667154 0.591932
vt 0.627073 0.661356
vt 0.627073 0.615073
vt 0.723483 0.686757
vt 0.723483 0.621968
vt 0.750519 0.606359
vt 0.750519 0.702366
vt 0.667374 0.589574
vt 0.667374 0.558355
vt 0.667374 0.719151
vt 0.667374 0.750370
vt 0.611266 0.621968
vt 0.584229 0.606359
vt 0.611266 0.686757
vt 0.584229 0.702366
vt 0.863112 0.818961
vt 0.863112 0.649777
vt 0.909673 0.622895
vt 0.928858 0.622895
vt 0.943358 0.740889
vt 0.900394 0.807379
vt 0.825830 0.807379
vt 0.782867 0.740889
vt 0.797366 0.622895
vt 0.816552 0.622895
vt 0.871598 0.032394
vt 0.927707 0.000000
vt 0.918159 0.018597
vt 0.871598 0.045478
vt 0.950827 0.034088
vt 0.937344 0.018597
vt 0.815490 0.000000
vt 0.825038 0.018597
vt 0.968119 0.149207
vt 0.951837 0.136542
vt 0.792370 0.034088
vt 0.805852 0.018597
vt 0.925993 0.216362
vt 0.908834 0.203096
vt 0.775077 0.149207
vt 0.791359 0.136542
vt 0.871598 0.233259
vt 0.871598 0.214663
vt 0.817204 0.216362
vt 0.834363 0.203096
vt 0.692968 0.302617
vt 0.673899 0.128629
vt 0.726630 0.090546
vt 0.753401 0.225454
vt 0.713941 0.293719
vt 0.670566 0.298473
vt 0.617256 0.240375
vt 0.614166 0.102873
vt 0.671885 0.110324
vt 0.709518 0.083042
vt 0.789586 0.236144
vt 0.763874 0.120192
vt 0.752982 0.310514
vt 0.696699 0.336661
vt 0.636089 0.323326
vt 0.584246 0.258650
vt 0.584229 0.139882
vt 0.629247 0.091854
vt 0.719220 0.026019
vt 0.704330 0.037017
vt 0.607412 0.038290
vt 0.624343 0.045792
vt 0.659796 0.000000
vt 0.661810 0.018403
vt 0.886687 0.233257
vt 0.982695 0.233267
vt 0.982672 0.454968
vt 0.886664 0.454958
vt 0.790680 0.233247
vt 0.790657 0.454948
vt 0.680260 0.336655
vt 0.776267 0.336665
vt 0.776244 0.558366
vt 0.680237 0.558356
vt 0.584252 0.336645
vt 0.584229 0.558347
vt 0.064932 0.000011
vt 0.064789 0.837316
vt 0.000000 0.837305
vt 0.000143 0.000000
vt 0.129720 0.000022
vt 0.129577 0.837328
vt 0.516592 0.000008
vt 0.516694 0.837313
vt 0.451905 0.837321
vt 0.451804 0.000016
vt 0.581381 0.000000
vt 0.581483 0.837305
vt 0.516714 0.999810
vt 0.451925 0.999818
vt 0.581502 0.999802
vt 0.444277 0.762167
vt 0.370012 0.762167
vt 0.370012 0.715885
vt 0.444277 0.715884
vt 0.444277 0.808450
vt 0.370012 0.808450
vt 0.292121 0.762177
vt 0.292115 0.715894
vt 0.366380 0.715884
vt 0.366386 0.762167
vt 0.292127 0.808459
vt 0.366392 0.808449
vt 0.886630 0.172182
vt 0.886632 0.191367
vt 0.829622 0.191374
vt 0.829620 0.172188
vt 0.886623 0.118418
vt 0.829614 0.118425
vt 0.886617 0.064654
vt 0.829607 0.064661
vt 0.886615 0.045469
vt 0.829605 0.045475
vt 0.724469 0.874632
vt 0.724467 0.835641
vt 0.781477 0.835638
vt 0.781479 0.874677
vt 0.724465 0.796650
vt 0.781474 0.796598
vt 0.724459 0.953870
vt 0.781468 0.953840
vt 0.724444 0.717412
vt 0.781454 0.717435
vt 0.292138 0.136232
vt 0.431517 0.136256
vt 0.431507 0.193215
vt 0.292128 0.193194
vt 0.292148 0.079270
vt 0.431527 0.079297
vt 0.431494 0.272490
vt 0.292115 0.272464
vt 0.431542 0.000023
vt 0.292162 0.000000
vt 0.292115 0.272482
vt 0.388122 0.272482
vt 0.388122 0.494183
vt 0.292115 0.494183
vt 0.292114 0.494183
vt 0.388122 0.494183
vt 0.388122 0.715884
vt 0.292114 0.715884
vt 0.290868 0.000011
vt 0.290719 0.837317
vt 0.225931 0.837305
vt 0.226079 0.000000
vt 0.290690 0.999814
vt 0.225902 0.999803
vt 0.331908 0.837324
vt 0.331883 0.976704
vt 0.448296 0.976725
vt 0.448318 0.837345
vt 0.219770 0.000000
vt 0.222386 0.837301
vt 0.157598 0.837504
vt 0.154982 0.000202
vt 0.222894 0.999798
vt 0.158106 1.000000
vt 0.116846 0.977011
vt 0.116410 0.837633
vt 0.000432 0.977376
vt 0.000000 0.837997
vt 0.389486 0.346755
vt 0.435768 0.346755
vt 0.435768 0.421021
vt 0.389486 0.421021
vt 0.389486 0.272490
vt 0.435768 0.272490
vt 0.435768 0.346755
vt 0.389486 0.346755
vt 0.699670 0.750372
vt 0.699662 0.869205
vt 0.642652 0.869250
vt 0.642660 0.750368
vt 0.584266 0.854938
vt 0.584229 0.736106
vt 0.641239 0.736088
vt 0.641276 0.854970
vn 0.000000 0.000000 -1.000000
vn 0.000000 0.000000 -1.000000
vn 0.000000 0.000000 -1.000000
vn 0.000000 0.000000 -1.000000
vn -0.866025 0.000000 -0.500001
vn -0.866025 0.000000 -0.500001
vn -0.866025 0.000000 -0.500001
vn -0.866025 0.000000 -0.500001
vn -0.866025 0.000000 0.500001
vn -0.866025 0.000000 0.500001
vn -0.866025 0.000000 0.500001
vn -0.866025 0.000000 0.500001
vn 0.000000 0.000000 1.000000
vn 0.000000 0.000000 1.000000
vn 0.000000 0.000000 1.000000
vn 0.000000 0.000000 1.000000
vn 0.866026 0.000000 0.500000
vn 0.866025 0.000000 0.500000
vn 0.866025 0.000000 0.500000
vn 0.866026 0.000000 0.500000
vn 0.866026 0.000000 -0.500000
vn 0.866026 0.000000 -0.500000
vn 0.866026 0.000000 -0.500000
vn 0.866026 0.000000 -0.499999
vn 0.000000 0.000000 -1.000000
vn 0.000001 -0.000000 -1.000000
vn 0.000000 0.000000 -1.000000
vn 0.000000 0.000000 -1.000000
vn -0.866025 0.000000 -0.500001
vn -0.866025 0.000000 -0.500001
vn -0.866025 0.000000 -0.500001
vn -0.866025 0.000000 -0.500001
vn -0.866025 0.000000 0.500001
vn -0.866025 0.000000 0.500001
vn -0.866025 0.000000 0.500001
vn -0.866025 0.000000 0.500001
vn 0.000000 0.000000 1.000000
vn 0.000001 -0.000001 1.000000
vn 0.000000 0.000000 1.000000
vn 0.000000 -0.000001 1.000000
vn 0.866025 0.000000 0.500001
vn 0.866025 0.000000 0.500001
vn 0.866025 0.000000 0.500001
vn 0.866025 0.000000 0.500001
vn 0.866025 0.000000 -0.500001
vn 0.866025 0.000000 -0.500001
vn 0.866025 0.000000 -0.500001
vn 0.866025 0.000000 -0.500001
vn 0.000000 -1.000000 0.000000
vn 0.000000 -1.000000 0.000000
vn 0.000000 -1.000000 0.000000
vn 0.000000 -1.000000 0.000000
vn 0.000000 -1.000000 0.000000
vn 0.000000 -1.000000 0.000000
vn 0.000000 -1.000000 0.000000
vn 0.000000 1.000000 0.000000
vn 0.000000 1.000000 0.000000
vn 0.000000 1.000000 0.000000
vn 0.000000 1.000000 0.000000
vn 0.000000 1.000000 0.000000
vn 0.000000 1.000000 0.000000
vn 0.000000 1.000000 0.000000
vn 0.000000 -1.000000 -0.000000
vn 0.000000 -1.000000 -0.000000
vn 0.000000 -1.000000 -0.000000
vn 0.000000 -1.000000 0.000000
vn 0.000000 1.000000 0.000000
vn 0.000000 1.000000 0.000000
vn 0.000000 1.000000 0.000000
vn 0.000000 1.000000 0.000000
vn 0.000000 -1.000000 0.000000
vn 0.000000 -1.000000 0.000000
vn 0.000000 -1.000000 0.000000
vn 0.000000 -1.000000 0.000000
vn 0.000000 1.000000 0.000000
vn 0.000000 1.000000 0.000001
vn 0.000000 1.000000 0.000000
vn 0.000000 1.000000 0.000001
vn 0.000000 -1.000000 0.000000
vn 0.000000 -1.000000 0.000000
vn 0.000000 -1.000000 0.000000
vn 0.000000 -1.000000 0.000000
vn 0.000000 1.000000 0.000000
vn 0.000000 1.000000 -0.000001
vn 0.000000 1.000000 -0.000000
vn 0.000000 1.000000 -0.000001
vn 0.000000 -1.000000 0.000000
vn 0.000000 -1.000000 0.000000
vn 0.000000 -1.000000 0.000000
vn 0.000000 -1.000000 0.000000
vn 0.000000 1.000000 -0.000000
vn 0.000000 1.000000 -0.000000
vn 0.000000 1.000000 -0.000000
vn 0.000000 1.000000 0.000000
vn 0.000000 -1.000000 0.000000
vn 0.000000 -1.000000 0.000000
vn 0.000000 -1.000000 0.000000
vn 0.000000 -1.000000 0.000000
vn 0.000000 1.000000 0.000000
vn 0.000000 1.000000 -0.000001
vn 0.000000 1.000000 -0.000000
vn 0.000000 1.000000 -0.000001
vn 0.000000 -1.000000 0.000000
vn 0.000000 -1.000000 -0.000000
vn 0.000000 -1.000000 -0.000000
vn 0.000000 -1.000000 -0.000000
vn 0.000000 1.000000 0.000000
vn 0.000000 1.000000 0.000001
vn 0.000000 1.000000 0.000000
vn 0.000000 1.000000 0.000001
vn -0.866030 0.000000 -0.499993
vn -0.866026 0.000002 -0.499999
vn -0.866027 0.000001 -0.499996
vn -0.866024 0.000003 -0.500003
vn 0.000011 0.000000 -1.000000
vn 0.000007 0.000003 -1.000000
vn 0.000004 0.000006 -1.000000
vn 0.000000 0.000009 -1.000000
vn 0.866026 0.000000 -0.499998
vn 0.866027 0.000000 -0.499998
vn 0.866027 0.000000 -0.499997
vn 0.866027 0.000000 -0.499997
vn 0.866025 0.000000 0.500001
vn 0.866025 0.000000 0.500001
vn 0.866025 0.000000 0.500001
vn 0.866025 0.000000 0.500001
vn 0.000015 0.000009 1.000000
vn 0.000009 0.000006 1.000000
vn 0.000005 0.000003 1.000000
vn 0.000000 0.000000 1.000000
vn -0.866030 0.000000 0.499992
vn -0.866029 0.000001 0.499994
vn -0.866028 0.000002 0.499996
vn -0.866026 0.000004 0.499998
vn 0.000011 -0.000004 -1.000000
vn 0.000014 -0.000006 -1.000000
vn 0.866025 0.000000 -0.500001
vn 0.866025 0.000000 -0.500001
vn 0.866025 0.000000 0.500001
vn 0.866025 0.000000 0.500001
vn 0.000011 -0.000001 1.000000
vn 0.000014 0.000000 1.000000
vn 0.000000 -1.000000 -0.000003
vn 0.000000 -1.000000 -0.000000
vn 0.000000 -1.000000 -0.000002
vn 0.000000 -1.000000 0.000000
vn 0.000000 -1.000000 0.000000
vn 0.000000 -1.000000 0.000000
vn 0.561300 -0.000005 -0.827613
vn 0.561312 -0.000001 -0.827604
vn 0.299350 -0.000002 -0.954143
vn 0.261430 0.000000 -0.965222
vn 0.000000 -1.000000 0.000000
vn 0.000000 -1.000000 0.000000
vn 0.000000 -1.000000 -0.000001
vn 0.000000 -1.000000 -0.000000
vn 0.000000 -1.000000 -0.000001
vn 0.000000 -1.000000 0.000000
vn 0.561301 -0.000005 0.827612
vn 0.299350 -0.000002 0.954143
vn 0.561310 -0.000001 0.827606
vn 0.261429 0.000000 0.965223
vn 0.000000 -1.000000 0.000000
vn 0.000000 -1.000000 -0.000000
vn 0.000000 -1.000000 -0.000004
vn 0.000000 -1.000000 -0.000005
vn 0.000000 -1.000000 0.000000
vn 0.000000 -1.000000 0.000000
vn 0.000000 -1.000000 0.000000
vn 0.000000 -1.000000 0.000000
vn 0.000000 -1.000000 0.000000
vn 0.000000 -1.000000 0.000000
vn 0.000000 -1.000000 0.000000
vn 0.000000 -1.000000 0.000000
vn 0.000000 -1.000000 -0.000004
vn 0.000000 -1.000000 0.000008
vn 0.000000 -1.000000 -0.000003
vn 0.000000 -1.000000 0.000010
vn -0.866026 0.000000 0.500000
vn -0.866026 0.000000 0.500000
vn -0.866026 0.000000 0.500000
vn -0.866026 0.000000 0.500000
vn -1.000000 0.000000 0.000000
vn -1.000000 0.000000 0.000000
vn -1.000000 0.000000 0.000000
vn -1.000000 0.000000 0.000000
vn -1.000000 0.000000 0.000000
vn -1.000000 0.000000 0.000000
vn -1.000000 0.000000 0.000000
vn -1.000000 0.000000 0.000000
vn -0.866026 0.000000 -0.499999
vn -0.866026 0.000000 -0.500000
vn -0.866026 0.000000 -0.500000
vn -0.866025 0.000000 -0.500001
vn 0.000000 1.000000 0.000001
vn 0.000000 1.000000 0.000000
vn 0.000000 1.000000 0.000000
vn 0.000000 1.000000 0.000002
vn 0.000000 1.000000 0.000002
vn 0.000000 1.000000 0.000000
vn 0.000000 1.000000 0.000000
vn 0.000000 1.000000 0.000000
vn -0.531398 -0.000017 0.847123
vn -0.531397 -0.000017 0.847123
vn -0.531397 -0.000017 0.847123
vn -0.531397 -0.000017 0.847123
vn 0.000000 -1.000000 0.000000
vn 0.000000 -1.000000 0.000000
vn 0.000000 -1.000000 0.000001
vn 0.000000 -1.000000 0.000001
vn 0.542713 0.000554 -0.839918
vn 0.542716 0.000549 -0.839916
vn 0.542715 0.000551 -0.839917
vn 0.542718 0.000546 -0.839915
vn -0.531397 -0.000017 -0.847123
vn -0.531397 -0.000017 -0.847123
vn -0.531397 -0.000017 -0.847123
vn -0.531397 -0.000017 -0.847123
vn 0.000000 -1.000000 0.000001
vn 0.000000 -1.000000 0.000001
vn 0.000000 -1.000000 0.000001
vn 0.000000 -1.000000 0.000001
vn 0.542714 0.000550 0.839917
vn 0.542715 0.000552 0.839917
vn 0.542714 0.000551 0.839917
vn 0.542715 0.000554 0.839917
vn -0.476736 0.804030 0.355330
vn -0.414234 0.812052 0.411075
vn -0.076414 0.777106 0.624714
vn -0.113047 0.782903 0.611787
vn -0.113047 0.782903 -0.611787
vn -0.414235 0.812051 -0.411075
vn -0.076414 0.777106 -0.624714
vn -0.476737 0.804029 -0.355330
vn 0.000000 -1.000000 0.000001
vn 0.000000 -1.000000 0.000001
vn -0.121963 0.000000 -0.992535
vn -0.121964 0.000003 -0.992535
vn -0.121963 0.000001 -0.992535
vn -0.121964 0.000004 -0.992535
vn 0.954984 0.000001 -0.296658
vn 0.954983 0.000001 -0.296659
vn 0.954983 0.000000 -0.296660
vn 0.954983 0.000000 -0.296662
vn 0.954983 0.000000 0.296661
vn 0.954983 0.000002 0.296662
vn 0.954982 0.000003 0.296663
vn 0.954982 0.000006 0.296664
vn -0.121963 0.000003 0.992535
vn -0.121964 0.000001 0.992535
vn -0.121963 0.000002 0.992535
vn -0.121964 0.000000 0.992535
vn -0.679287 0.733873 -0.000001
vn -0.679291 0.733869 -0.000001
vn 0.076063 0.661440 -0.746131
vn 0.072435 0.649844 -0.756608
vn 0.076063 0.661440 0.746131
vn 0.072435 0.649843 0.756609
vn -0.954985 0.000000 0.296656
vn -0.954984 0.000001 0.296658
vn -0.954984 0.000000 0.296656
vn -0.954984 0.000002 0.296658
vn 0.148551 -0.000001 -0.988905
vn 0.148550 -0.000000 -0.988905
vn 0.148550 -0.000000 0.988905
vn 0.148551 -0.000001 0.988905
vn -0.954984 0.000000 -0.296656
vn -0.954984 0.000001 -0.296657
vn -0.954984 0.000002 -0.296657
vn -0.954984 0.000003 -0.296657
vn 0.000000 1.000000 -0.000003
vn 0.000000 1.000000 -0.000001
vn 0.000000 1.000000 -0.000003
vn 0.000000 1.000000 0.000000
vn 0.000000 1.000000 -0.000006
vn 0.000000 1.000000 -0.000002
vn 0.000000 1.000000 -0.000005
vn 0.000000 1.000000 0.000000
vn 0.000000 1.000000 -0.000003
vn 0.000000 1.000000 -0.000001
vn 0.000000 1.000000 -0.000003
vn 0.000000 1.000000 0.000000
vn 0.000000 1.000000 0.000003
vn 0.000000 1.000000 0.000001
vn 0.000000 1.000000 0.000003
vn 0.000000 1.000000 0.000000
vn 0.000000 1.000000 0.000006
vn 0.000000 1.000000 0.000002
vn 0.000000 1.000000 0.000005
vn 0.000000 1.000000 0.000000
vn 0.000000 1.000000 0.000003
vn 0.000000 1.000000 0.000001
vn 0.000000 1.000000 0.000003
vn 0.000000 1.000000 0.000000
s 1
g Pole
usemtl phong1SG
f 14/156/1 15/157/2 17/159/3
f 17/159/3 15/157/2 16/158/4
s 2
f 15/91/5 18/87/6 16/92/7
f 16/92/7 18/87/6 19/90/8
s 3
f 18/87/9 20/88/10 19/90/11
f 19/90/11 20/88/10 21/89/12
s 4
f 20/160/13 22/161/14 21/163/15
f 21/163/15 22/161/14 23/162/16
s 5
f 22/97/17 24/93/18 23/98/19
f 23/98/19 24/93/18 25/96/20
s 6
f 24/93/21 14/94/22 25/96/23
f 25/96/23 14/94/22 17/95/24
s 7
f 8/164/25 33/165/26 7/167/27
f 7/167/27 33/165/26 34/166/28
s 8
f 9/99/29 32/100/30 8/102/31
f 8/102/31 32/100/30 33/101/32
s 9
f 10/103/33 37/104/34 9/99/35
f 9/99/35 37/104/34 32/100/36
s 10
f 11/174/37 36/175/38 10/177/39
f 10/177/39 36/175/38 37/176/40
s 11
f 12/105/41 35/106/42 11/108/43
f 11/108/43 35/106/42 36/107/44
s 12
f 7/109/45 34/110/46 12/105/47
f 12/105/47 34/110/46 35/106/48
s 13
f 2/1/49 1/2/50 13/3/51
f 3/7/52 2/1/49 13/3/51
f 4/11/53 3/7/52 13/3/51
f 5/10/54 4/11/53 13/3/51
f 6/6/55 5/10/54 13/3/51
f 1/2/50 6/6/55 13/3/51
s 14
f 77/14/56 78/15/57 79/16/58
f 78/15/57 80/17/59 79/16/58
f 80/17/59 81/19/60 79/16/58
f 81/19/60 82/20/61 79/16/58
f 82/20/61 83/18/62 79/16/58
f 83/18/62 77/14/56 79/16/58
s 15
f 1/2/63 2/1/64 14/5/65
f 14/5/65 2/1/64 15/4/66
s 16
f 8/21/67 7/22/68 16/24/69
f 16/24/69 7/22/68 17/23/70
s 17
f 2/1/71 3/7/72 15/4/73
f 15/4/73 3/7/72 18/8/74
s 18
f 9/27/75 8/21/76 19/28/77
f 19/28/77 8/21/76 16/24/78
s 19
f 3/7/79 4/11/80 18/8/81
f 18/8/81 4/11/80 20/12/82
s 20
f 10/31/83 9/27/84 21/32/85
f 21/32/85 9/27/84 19/28/86
s 21
f 4/11/87 5/10/88 20/12/89
f 20/12/89 5/10/88 22/13/90
s 22
f 11/29/91 10/31/92 23/30/93
f 23/30/93 10/31/92 21/32/94
s 23
f 5/10/95 6/6/96 22/13/97
f 22/13/97 6/6/96 24/9/98
s 24
f 12/25/99 11/29/100 25/26/101
f 25/26/101 11/29/100 23/30/102
s 25
f 6/6/103 1/2/104 24/9/105
f 24/9/105 1/2/104 14/5/106
s 26
f 7/22/107 12/25/108 17/23/109
f 17/23/109 12/25/108 25/26/110
s 27
f 84/114/111 80/115/112 85/117/113
f 85/117/113 80/115/112 78/116/114
s 28
f 86/184/115 85/185/116 77/187/117
f 77/187/117 85/185/116 78/186/118
s 29
f 87/120/119 86/121/120 83/123/121
f 83/123/121 86/121/120 77/122/122
s 30
f 88/124/123 87/120/124 82/125/125
f 82/125/125 87/120/124 83/123/126
s 31
f 89/188/127 88/189/128 81/191/129
f 81/191/129 88/189/128 82/190/130
s 32
f 84/114/131 89/118/132 80/115/133
f 80/115/133 89/118/132 81/119/134
s 7
f 34/166/28 33/165/26 28/169/135
f 28/169/135 33/165/26 27/168/136
s 12
f 35/106/48 34/110/46 29/111/137
f 29/111/137 34/110/46 28/113/138
s 11
f 36/107/44 35/106/42 30/112/139
f 30/112/139 35/106/42 29/111/140
s 10
f 37/176/40 36/175/38 31/179/141
f 31/179/141 36/175/38 30/178/142
s 33
f 48/33/143 47/34/144 65/38/145
f 65/38/145 47/34/144 66/37/146
f 47/34/144 49/35/147 66/37/146
f 49/35/147 50/36/148 66/37/146
s 34
f 27/168/149 33/165/150 55/171/151
f 55/171/151 33/165/150 39/170/152
s 35
f 48/33/153 68/39/154 47/34/155
f 68/39/154 67/40/156 47/34/155
f 47/34/155 67/40/156 52/42/157
f 67/40/156 51/41/158 52/42/157
s 36
f 31/179/159 56/180/160 37/176/161
f 37/176/161 56/180/160 40/181/162
s 37
f 37/44/163 43/45/164 32/43/165
f 32/43/165 43/45/164 41/46/166
s 38
f 40/47/167 44/48/168 37/44/169
f 37/44/169 44/48/168 43/45/170
f 39/53/171 33/49/172 45/54/173
f 45/54/173 33/49/172 46/50/174
s 40
f 33/49/175 32/43/176 46/50/177
f 46/50/177 32/43/176 41/46/178
s 41
f 41/130/179 43/126/180 47/131/181
f 47/131/181 43/126/180 49/129/182
s 42
f 43/126/183 44/127/184 49/129/185
f 49/129/185 44/127/184 50/128/186
s 43
f 45/134/187 46/132/188 51/135/189
f 51/135/189 46/132/188 52/133/190
s 44
f 46/132/191 41/130/192 52/133/193
f 52/133/193 41/130/192 47/131/194
s 45
f 27/65/195 75/66/196 26/64/197
f 53/63/198 26/64/197 76/67/199
f 26/64/197 75/66/196 76/67/199
f 31/70/200 26/64/197 69/69/201
f 53/63/198 70/68/202 26/64/197
f 70/68/202 69/69/201 26/64/197
s 48
f 57/148/203 58/152/204 72/149/205
f 72/149/205 58/152/204 71/153/206
s 38
f 57/55/207 60/56/208 58/51/209
f 58/51/209 60/56/208 59/52/210
s 50
f 59/142/211 60/136/212 66/143/213
f 66/143/213 60/136/212 65/139/214
s 51
f 61/154/215 62/151/216 74/155/217
f 74/155/217 62/151/216 73/150/218
s 38
f 62/61/219 61/57/220 63/62/221
f 63/62/221 61/57/220 64/58/222
s 53
f 63/140/223 64/144/224 68/141/225
f 68/141/225 64/144/224 67/145/226
s 54
f 70/68/227 72/77/228 69/69/229
f 69/69/229 72/77/228 71/78/230
f 74/73/231 73/75/232 75/66/233
f 75/66/233 73/75/232 76/67/234
s 38
f 58/51/209 59/52/210 40/47/167
f 40/47/167 59/52/210 44/48/168
f 57/55/207 38/59/235 60/56/208
f 60/56/208 38/59/235 42/60/236
f 62/61/219 63/62/221 38/59/235
f 38/59/235 63/62/221 42/60/236
f 61/57/220 39/53/171 64/58/222
f 64/58/222 39/53/171 45/54/173
s 56
f 44/192/237 59/193/238 50/195/239
f 50/195/239 59/193/238 66/194/240
s 57
f 60/136/241 42/137/242 65/139/243
f 65/139/243 42/137/242 48/138/244
s 58
f 42/137/245 63/140/246 48/138/247
f 48/138/247 63/140/246 68/141/248
s 59
f 64/196/249 45/197/250 67/199/251
f 67/199/251 45/197/250 51/198/252
s 54
f 53/63/253 54/76/254 70/68/227
f 70/68/227 54/76/254 72/77/228
f 53/63/253 76/67/234 54/76/254
f 54/76/254 76/67/234 73/75/232
f 74/73/231 75/66/233 55/74/255
f 55/74/255 75/66/233 27/65/256
f 71/78/230 56/79/257 69/69/229
f 69/69/229 56/79/257 31/70/258
s 61
f 54/146/259 38/147/260 72/149/261
f 72/149/261 38/147/260 57/148/262
s 34
f 74/172/263 55/171/151 61/173/264
f 61/173/264 55/171/151 39/170/152
s 36
f 40/181/162 56/180/160 58/183/265
f 58/183/265 56/180/160 71/182/266
s 62
f 54/146/267 73/150/268 38/147/269
f 38/147/269 73/150/268 62/151/270
s 63
f 27/65/271 26/64/272 85/72/273
f 85/72/273 26/64/272 84/71/274
s 64
f 28/81/275 27/65/276 86/82/277
f 86/82/277 27/65/276 85/72/278
s 65
f 29/85/279 28/81/280 87/86/281
f 87/86/281 28/81/280 86/82/282
s 66
f 30/83/283 29/85/284 88/84/285
f 88/84/285 29/85/284 87/86/286
s 67
f 31/70/287 30/83/288 89/80/289
f 89/80/289 30/83/288 88/84/290
s 68
f 26/64/291 31/70/292 84/71/293
f 84/71/293 31/70/292 89/80/294
