# This file uses centimeters as units for non-parametric coordinates.

mtllib Trees.mtl
g default
v 3.700159 4.102521 -9.877479
v 5.036586 4.804351 -11.252604
v 3.700159 4.734960 -10.018871
v 5.313656 4.168379 -11.252604
v 3.938531 4.776145 -11.252604
v 4.845940 4.203265 -11.720320
v 4.663109 4.804351 -11.626081
v 5.758285 3.609378 -11.202976
v 3.429033 3.760361 -9.699719
v 5.230109 3.666646 -11.731153
v 5.531992 3.257568 -11.202976
v 3.547631 3.408551 -9.926013
v 2.602104 4.635841 -11.252604
v 3.938531 4.804351 -12.076352
v 5.080784 3.284276 -11.683884
v 3.938531 2.847250 -10.154549
v 3.938531 4.270948 -12.353422
v 5.036586 2.847250 -11.252604
v 2.325034 4.205090 -11.252604
v 3.204185 4.711758 -11.472987
v 3.938531 3.928734 -12.805488
v 4.663109 3.049099 -11.685774
v 2.221041 3.487075 -11.339922
v 3.938531 3.487075 -12.666512
v 3.051939 4.234760 -11.597812
v 2.840477 3.041039 -11.428105
v 1.876149 3.928734 -11.252604
v 4.025501 2.656569 -11.037440
v 4.025501 2.417220 -11.108035
v 2.954263 3.928734 -11.952201
v 4.368526 2.112752 -11.387014
v 4.368526 2.417220 -11.387014
v 3.591974 2.764045 -11.159096
v 3.591974 2.721688 -11.159096
v 3.704475 2.721688 -11.122542
v 4.025501 2.112752 -11.018234
v 3.591974 2.736501 -11.274068
v 3.938531 3.041039 -12.526159
v 4.076009 2.765001 -11.755795
v 4.084385 2.721688 -11.755795
v 4.026937 2.727515 -11.731407
v 3.958875 2.417220 -11.796096
v 4.224007 1.808284 -11.492537
v 3.143776 3.487075 -11.937571
v 3.591974 2.112752 -11.159096
v 3.893471 1.808284 -11.062336
v 3.958875 2.112752 -11.796096
v 3.335167 3.041039 -11.922795
v 3.512859 2.467167 -11.525643
v 3.591974 2.417220 -11.248897
v 4.037990 1.503816 -10.956813
v 4.273656 1.503816 -11.312754
v 3.591974 1.808284 -11.159096
v 4.025501 1.199349 -11.096018
v 3.591974 1.503816 -11.159096
v 3.424056 2.112752 -11.631773
v 4.037990 1.808284 -11.817216
v 3.948600 1.503816 -11.681534
v 4.293436 1.199349 -11.312754
v 4.025501 1.199349 -11.681534
v 4.025501 0.894881 -11.072867
v 4.440933 0.894881 -11.450747
v 3.503171 1.808284 -11.652894
v 3.678455 1.503816 -11.614933
v 3.503171 1.199349 -11.211874
v 3.503171 0.894881 -11.121135
v 4.025501 0.539140 -11.252175
v 4.368526 0.590412 -11.387014
v 4.110396 0.894881 -11.817216
v 3.609858 1.199349 -11.652894
v 4.502954 0.285944 -11.387014
v 4.099869 0.234672 -10.847011
v 4.608462 -0.018523 -11.387014
v 4.099869 -0.018523 -10.686996
v 3.591974 0.590412 -11.393037
v 4.037990 0.590412 -11.817216
v 3.503171 0.894881 -11.652894
v 3.371808 0.285944 -11.114393
v 3.276948 -0.018523 -10.954379
v 3.905677 -0.018523 -11.387014
v 3.591974 0.590412 -11.614933
v 3.994361 0.285944 -12.087032
v 4.099869 -0.018523 -12.087032
v 3.371809 0.285944 -11.819650
v 3.276948 -0.018523 -11.819649
v 4.354616 2.678550 -11.387014
v 4.290905 2.721688 -11.471545
v 3.587640 2.754954 -11.545608
v 4.329735 2.650842 -11.365580
v 3.591974 2.699598 -11.428105
v 3.938531 2.671592 -11.713023
v 3.938531 2.626864 -11.074460
vt 0.410267 0.728765
vt 0.587536 0.731105
vt 0.507952 0.802623
vt 0.584812 0.782475
vt 0.410414 0.889920
vt 0.561695 0.862278
vt 0.468789 0.866528
vt 0.244242 0.528176
vt 0.407716 0.567179
vt 0.219993 0.599274
vt 0.409664 0.497590
vt 0.421608 0.607145
vt 0.177235 0.500683
vt 0.306351 0.474027
vt 0.211007 0.653905
vt 0.297031 0.467331
vt 0.314952 0.465819
vt 0.248745 0.689181
vt 0.284672 0.458274
vt 0.331840 0.448389
vt 0.220574 0.457692
vt 0.339514 0.443516
vt 0.273007 0.453293
vt 0.327801 0.402174
vt 0.278415 0.415749
vt 0.374868 0.352040
vt 0.207879 0.368968
vt 0.418463 0.307135
vt 0.327207 0.398124
vt 0.282610 0.406392
vt 0.346725 0.302841
vt 0.318269 0.342359
vt 0.282653 0.399815
vt 0.316657 0.396692
vt 0.196094 0.307308
vt 0.051025 0.659143
vt 0.130594 0.686941
vt 0.070746 0.724698
vt 0.128745 0.771205
vt 0.000000 0.726228
vt 0.159257 0.692388
vt 0.048034 0.795486
vt 0.163351 0.767992
vt 0.205026 0.712259
vt 0.216072 0.659139
vt 0.207539 0.756871
vt 0.216503 0.811515
vt 0.224262 0.770565
vt 0.975092 0.542986
vt 0.986043 0.540231
vt 0.986530 0.544328
vt 0.973856 0.511813
vt 0.959768 0.541188
vt 0.946378 0.519211
vt 0.979504 0.481413
vt 0.949167 0.548106
vt 0.930820 0.485574
vt 0.928844 0.454926
vt 0.977617 0.451815
vt 0.933342 0.420800
vt 0.978516 0.422171
vt 0.976023 0.390952
vt 0.931831 0.390212
vt 0.934799 0.358927
vt 0.986515 0.361838
vt 0.961807 0.329505
vt 0.940227 0.328290
vt 0.877962 0.218304
vt 0.833281 0.189097
vt 0.872128 0.189096
vt 0.824575 0.222624
vt 0.867400 0.158423
vt 0.778335 0.218337
vt 0.824847 0.251573
vt 0.819670 0.154849
vt 0.781805 0.250230
vt 0.777765 0.187370
vt 0.880176 0.248660
vt 0.866502 0.128354
vt 0.869779 0.280058
vt 0.821197 0.274067
vt 0.820650 0.124138
vt 0.777255 0.154534
vt 0.835257 0.280801
vt 0.824683 0.276569
vt 0.776929 0.274261
vt 0.831828 0.092333
vt 0.786452 0.124698
vt 0.870294 0.284339
vt 0.781493 0.095132
vt 0.876722 0.094054
vt 0.827352 0.062443
vt 0.880829 0.063262
vt 0.819736 0.030947
vt 0.904580 0.030982
vt 0.898415 0.000000
vt 0.813589 0.000013
vt 0.756955 0.051802
vt 0.735198 0.032143
vt 0.031074 0.084285
vt 0.000008 0.068702
vt 0.031064 0.000000
vt 0.000000 0.000004
vt 0.421264 0.027577
vt 0.460891 0.018144
vt 0.380712 0.254520
vt 0.411063 0.284199
vt 0.338060 0.198534
vt 0.512384 0.065268
vt 0.531682 0.000000
vt 0.452369 0.264544
vt 0.568782 0.101277
vt 0.497844 0.451533
vt 0.516600 0.267403
vt 0.563218 0.025402
vt 0.539005 0.424118
vt 0.568745 0.484927
vt 0.044375 0.182471
vt 0.068626 0.227631
vt 0.000000 0.227988
vt 0.118251 0.122121
vt 0.162015 0.160873
vt 0.220316 0.067297
vt 0.105678 0.257743
vt 0.160323 0.047467
vt 0.197733 0.193691
vt 0.012032 0.282788
vt 0.181651 0.000000
vt 0.287326 0.070831
vt 0.145757 0.287103
vt 0.004287 0.334041
vt 0.229390 0.218554
vt 0.253427 0.010455
vt 0.057767 0.349930
vt 0.317752 0.098152
vt 0.186212 0.313542
vt 0.355046 0.045238
vt 0.251563 0.258621
vt 0.135094 0.359672
vt 0.331449 0.011475
vt 0.355803 0.226853
vt 0.587502 0.806714
vt 0.591586 0.806126
vt 0.593229 0.817530
vt 0.621688 0.799057
vt 0.606023 0.839056
vt 0.628021 0.843005
vt 0.604357 0.848562
vt 0.652561 0.797339
vt 0.658894 0.841287
vt 0.686315 0.823637
vt 0.681915 0.793108
vt 0.711270 0.788878
vt 0.718399 0.836047
vt 0.748974 0.824642
vt 0.738592 0.773570
vt 0.769242 0.769293
vt 0.778284 0.819583
vt 0.809921 0.768254
vt 0.816430 0.812460
vt 0.824505 0.847797
vt 0.856915 0.848581
vt 0.931217 0.984853
vt 0.930421 0.980631
vt 0.936506 0.981132
vt 0.939908 0.949736
vt 0.945091 0.975358
vt 0.990579 0.955871
vt 0.940650 0.920088
vt 0.982878 0.983860
vt 0.995140 0.919092
vt 0.986629 0.889583
vt 0.932138 0.890579
vt 0.970832 0.859001
vt 0.943730 0.859024
vt 0.976409 0.828888
vt 0.935830 0.829473
vt 0.986348 0.799076
vt 0.925087 0.797736
vt 0.979627 0.768696
vt 0.931926 0.768028
vt 0.925491 0.728696
vt 0.991490 0.728741
vt 1.000000 0.698865
vt 0.915715 0.698869
vn 0.664655 0.163013 0.729150
vn 0.657963 0.037835 0.752099
vn 0.625594 0.254022 0.737634
vn 0.550741 0.386234 0.739938
vn -0.025669 0.999267 0.028399
vn -0.025669 0.999267 0.028399
vn -0.025669 0.999267 0.028399
vn 0.663849 0.406039 -0.628042
vn 0.609640 0.422991 -0.670386
vn 0.679936 0.303686 -0.667430
vn 0.566962 0.293145 -0.769819
vn -0.025671 0.999341 0.025673
vn -0.023712 0.999284 0.029467
vn -0.022276 0.999232 0.032250
vn -0.021261 0.999188 0.034214
vn 0.501458 0.463706 0.730422
vn 0.605792 0.164507 0.778430
vn 0.650900 0.464410 -0.600543
vn 0.633763 0.462652 -0.619917
vn 0.625233 -0.402167 -0.668839
vn 0.614458 -0.475886 -0.629265
vn 0.610372 -0.324714 -0.722501
vn 0.543324 -0.494152 -0.678685
vn 0.522613 -0.374026 0.766147
vn 0.495244 -0.322659 0.806613
vn 0.517576 -0.225058 0.825508
vn 0.492515 -0.347275 0.798016
vn -0.744808 0.145588 0.651203
vn -0.657694 0.356659 0.663501
vn -0.640253 0.443908 0.626914
vn -0.524352 0.618834 0.584892
vn -0.104402 0.994450 0.013025
vn -0.104402 0.994450 0.013025
vn -0.104402 0.994450 0.013025
vn 0.554778 -0.029955 0.831459
vn 0.515407 -0.684624 0.515408
vn 0.536781 0.357726 -0.764132
vn 0.492902 0.585181 -0.643903
vn 0.498533 -0.633921 -0.591278
vn 0.438531 -0.646201 -0.624593
vn -0.488465 0.683122 0.542905
vn -0.446250 0.724847 0.524841
vn -0.097433 0.994659 0.034059
vn -0.101223 0.993755 0.046956
vn -0.098113 0.994510 0.036370
vn -0.104239 0.992903 0.057256
vn 0.525606 0.609346 -0.593663
vn -0.539275 0.370079 -0.756455
vn -0.613282 0.366961 -0.699447
vn -0.470444 0.560512 -0.681549
vn -0.535023 0.582191 -0.612212
vn -0.610172 -0.623620 0.488660
vn -0.615812 -0.566217 0.547881
vn -0.566087 -0.656575 0.498452
vn -0.606236 -0.580815 0.543261
vn 0.619840 -0.281789 -0.732389
vn 0.590946 -0.242141 -0.769513
vn -0.402052 0.295093 -0.866761
vn -0.406786 0.593963 -0.694070
vn -0.635001 -0.626337 0.452189
vn -0.519912 -0.740457 0.425929
vn 0.742868 -0.200936 -0.638570
vn 0.630594 0.033564 0.775387
vn 0.661043 -0.034538 0.749553
vn 0.630905 0.013631 0.775740
vn 0.717203 -0.197139 0.668398
vn 0.702385 0.024858 0.711363
vn -0.420352 0.728114 -0.541438
vn -0.463615 0.706449 -0.534782
vn -0.407800 0.662391 -0.628440
vn 0.682846 -0.247122 0.687497
vn 0.742249 -0.189120 0.642885
vn -0.309002 0.000000 0.951061
vn -0.299938 -0.240569 0.923127
vn -0.297739 -0.267703 0.916344
vn -1.000000 0.000000 0.000000
vn -1.000000 0.000001 0.000000
vn -1.000000 0.000000 0.000000
vn -0.396189 -0.076624 -0.914966
vn -0.360821 0.227770 -0.904394
vn -0.355987 0.254065 -0.899291
vn 0.704019 -0.085655 -0.704997
vn 0.730549 -0.122902 -0.671709
vn 0.724493 -0.037863 -0.688242
vn 0.808266 0.043020 -0.587244
vn 0.808237 0.043935 -0.587216
vn 0.771644 -0.066481 0.632570
vn 0.802853 0.042479 0.594662
vn -0.571700 -0.270661 -0.774533
vn -0.648670 -0.247228 -0.719796
vn -0.599635 -0.316517 -0.735020
vn -0.664432 -0.235696 -0.709209
vn -0.305285 0.154958 0.939569
vn -0.304736 0.153134 0.940046
vn -0.347866 0.044356 0.936494
vn -0.305578 0.000000 0.952167
vn -0.515866 -0.317839 -0.795525
vn -0.526926 -0.250937 -0.812022
vn 0.706157 -0.036025 -0.707139
vn 0.759620 -0.160856 -0.630161
vn 0.741785 0.029569 -0.669985
vn 0.865338 -0.073462 -0.495776
vn -0.660359 -0.292627 -0.691589
vn -0.690227 -0.217191 -0.690228
vn -0.962438 0.098921 0.252839
vn -0.938753 0.148166 0.311112
vn -0.962164 -0.002146 0.272464
vn -0.939688 -0.074490 0.333822
vn 0.817825 0.194844 0.541477
vn 0.757373 0.253601 0.601725
vn -0.511477 -0.472212 -0.717919
vn -0.504908 0.096815 -0.857727
vn -0.353407 0.071876 -0.932704
vn -0.384671 0.206720 -0.899608
vn -0.288158 0.193308 -0.937868
vn 0.710464 -0.072855 0.699952
vn 0.651760 0.017790 0.758217
vn -0.406963 -0.170903 0.897314
vn -0.314745 -0.095475 0.944362
vn 0.771000 -0.047491 -0.635063
vn 0.778546 -0.097178 -0.620018
vn -0.990496 -0.117040 0.072243
vn -0.918369 -0.329203 0.219598
vn -0.240696 -0.073478 0.967815
vn -0.215240 0.109571 0.970395
vn 0.763019 0.332388 -0.554365
vn 0.725144 0.335362 -0.601413
vn 0.604147 -0.103268 0.790153
vn 0.672865 -0.006982 0.739732
vn -0.971079 0.151865 -0.184232
vn -0.995486 -0.057803 -0.075271
vn 0.755694 0.129310 -0.642033
vn 0.759291 0.093130 -0.644052
vn -0.173656 -0.137727 -0.975128
vn -0.265595 -0.139774 -0.953899
vn -0.284736 -0.133376 -0.949282
vn -0.291772 -0.114324 -0.949631
vn -0.158953 -0.291966 0.943128
vn -0.131195 -0.294594 0.946574
vn 0.502089 -0.032124 0.864219
vn 0.548907 0.332667 0.766833
vn -0.974156 0.185388 -0.129040
vn -0.932433 0.282293 -0.225565
vn 0.777361 0.074202 -0.624663
vn 0.784246 0.212152 -0.583052
vn -0.092730 0.035375 -0.995063
vn -0.167743 0.182740 -0.968746
vn 0.658248 0.430165 0.617792
vn 0.690944 0.485215 0.535875
vn 0.760848 0.286772 0.582128
vn 0.758382 0.348218 0.550999
vn -0.260377 0.462456 0.847548
vn -0.199559 0.127149 0.971601
vn 0.768664 0.300842 -0.564491
vn 0.768117 0.313932 -0.558071
vn -0.993189 -0.116518 0.000000
vn -0.996818 -0.013616 -0.078543
vn -0.299942 0.165570 -0.939479
vn -0.223690 -0.020784 -0.974439
vn -0.225028 0.641159 0.733674
vn -0.217217 0.633241 0.742848
vn -0.264856 0.515156 0.815147
vn -0.264310 0.512631 0.816915
vn 0.000000 -1.000000 0.000000
vn 0.000000 -1.000000 0.000000
vn 0.000000 -1.000000 0.000000
vn -0.372610 0.431491 -0.821570
vn -0.325504 0.371188 -0.869636
vn 0.000000 -1.000000 0.000000
vn 0.000000 -1.000000 0.000000
vn -0.339875 0.248978 -0.906915
vn -0.360859 0.404791 -0.840194
vn 0.000000 -1.000000 0.000000
vn -0.307262 -0.106475 -0.945650
vn -0.364880 0.042979 -0.930062
vn 0.799293 0.154585 -0.580719
vn -0.308042 0.079360 0.948057
vn -0.308056 0.078806 0.948099
vn -0.953155 0.258565 0.156973
vn -0.974908 0.150531 0.163994
vn -0.449589 0.196493 -0.871355
vn -0.421106 0.046587 -0.905814
vn -0.966161 0.257940 0.000000
vn -0.963039 0.269363 -0.000000
vn 0.778984 0.269941 -0.565965
vn 0.778983 0.269942 -0.565965
vn -0.919770 0.392457 -0.000000
vn -0.910524 0.413456 -0.000001
vn -0.954735 0.297457 0.000000
vn -0.954735 0.297459 -0.000000
vn 0.226903 -0.947117 0.226903
vn 0.226903 -0.947117 0.226903
vn 0.226903 -0.947117 0.226903
vn 0.226909 -0.947116 0.226902
vn 0.226904 -0.947117 0.226903
vn 0.301541 -0.737873 -0.603836
vn 0.301538 -0.737881 -0.603826
vn 0.301540 -0.737882 -0.603825
vn 0.381511 -0.785831 -0.486744
vn 0.439934 -0.817597 -0.371474
vn 0.439939 -0.817596 -0.371472
vn 0.439937 -0.817596 -0.371474
vn 0.438950 -0.812615 -0.383380
vn 0.401002 -0.775222 -0.488086
vn -0.297527 -0.270088 0.915713
vn -0.297533 -0.270084 0.915712
vn -0.404151 -0.889521 0.213106
vn -0.404153 -0.889520 0.213106
vn -0.404152 -0.889521 0.213105
vn -0.404152 -0.889521 0.213104
vn -0.404152 -0.889521 0.213104
vn -0.404152 -0.889521 0.213104
vn -0.404154 -0.889520 0.213104
vn -0.382241 -0.841299 -0.382242
vn -0.382241 -0.841299 -0.382242
vn -0.382241 -0.841299 -0.382242
vn -0.382244 -0.841297 -0.382242
vn -0.382240 -0.841299 -0.382241
vn -0.382241 -0.841299 -0.382241
s 1
g Tree1
usemtl lambert10SG
f 3/114/1 1/111/2 2/112/3
f 2/112/3 1/111/2 4/109/4
s off
f 3/1/5 2/2/6 5/3/7
s 2
f 4/109/8 6/115/9 2/112/10
f 2/128/10 6/123/9 7/125/11
s 3
f 2/2/12 7/4/13 5/3/14
f 5/3/14 7/4/13 14/6/15
s 1
f 8/105/16 4/109/4 9/107/17
f 9/107/17 4/109/4 1/111/2
s 2
f 8/105/18 10/110/19 4/109/8
f 4/133/8 10/129/19 6/123/9
s 4
f 8/140/20 11/137/21 10/129/22
f 10/129/22 11/137/21 15/135/23
s 5
f 11/104/24 8/105/25 12/106/26
f 12/106/26 8/105/25 9/107/27
s 6
f 3/114/28 13/116/29 1/111/30
f 1/111/30 13/116/29 19/113/31
s off
f 13/5/32 3/1/33 5/3/34
s 5
f 12/106/26 16/108/35 11/104/24
f 11/28/24 16/11/35 18/26/36
s 2
f 7/125/11 6/123/9 14/121/37
f 14/121/37 6/123/9 17/122/38
s 4
f 11/28/21 18/26/39 15/31/23
f 15/31/23 18/26/39 22/32/40
s 6
f 1/111/30 19/113/31 9/107/41
f 9/12/41 19/18/31 27/15/42
s 7
f 14/6/43 20/7/44 5/3/45
f 5/3/45 20/7/44 13/5/46
s 2
f 10/129/19 21/126/47 6/123/9
f 6/123/9 21/126/47 17/122/38
s 8
f 20/118/48 14/121/49 25/119/50
f 25/119/50 14/121/49 17/122/51
s 9
f 12/9/52 9/12/53 23/10/54
f 23/10/54 9/12/53 27/15/55
s 4
f 15/135/23 24/132/56 10/129/22
f 10/129/22 24/132/56 21/126/57
s 8
f 20/118/48 25/119/50 13/120/58
f 13/116/58 25/117/50 19/113/59
s 9
f 16/11/60 12/9/52 26/8/61
f 26/8/61 12/9/52 23/10/54
s 4
f 15/31/23 22/32/40 24/35/56
f 24/132/56 22/141/40 38/138/62
s 10
f 86/85/63 89/81/64 32/74/65
f 28/86/66 29/76/67 89/81/64
f 29/76/67 32/74/65 89/81/64
s 8
f 25/119/50 17/122/51 30/124/68
f 30/124/68 17/122/51 21/126/69
f 25/119/50 30/124/68 19/127/59
f 19/127/59 30/124/68 27/131/70
s 10
f 32/74/65 29/76/67 31/71/71
f 31/71/71 29/76/67 36/73/72
s 11
f 33/142/73 34/143/74 35/144/75
s 12
f 37/49/76 34/50/77 33/51/78
s 13
f 39/163/79 40/164/80 41/165/81
s 14
f 42/78/82 40/80/83 32/74/84
f 86/85/85 32/74/84 87/84/86
f 32/74/84 40/80/83 87/84/86
s 10
f 31/71/71 36/73/72 43/69/87
f 43/69/87 36/73/72 46/77/88
s 15
f 30/124/89 21/126/90 44/130/91
f 44/130/91 21/126/90 24/132/92
s 11
f 36/150/93 45/149/94 46/151/95
f 46/151/95 45/149/94 53/152/96
s 15
f 44/130/91 23/134/97 30/124/89
f 30/124/89 23/134/97 27/131/98
s 14
f 31/71/99 43/69/100 47/68/101
f 47/68/101 43/69/100 57/70/102
s 15
f 44/130/91 24/132/92 48/136/103
f 48/136/103 24/132/92 38/138/104
s 12
f 50/52/105 49/54/106 45/55/107
f 45/55/107 49/54/106 56/57/108
s 10
f 51/83/109 52/75/110 46/77/88
f 46/77/88 52/75/110 43/69/87
s 15
f 48/136/103 26/139/111 44/130/91
f 44/13/91 26/8/111 23/10/97
s 13
f 42/166/112 47/169/113 49/168/114
f 49/168/114 47/169/113 56/171/115
s 10
f 51/83/109 54/88/116 52/75/110
f 52/75/110 54/88/116 59/82/117
s 11
f 51/154/118 46/151/95 55/153/119
f 55/153/119 46/151/95 53/152/96
s 14
f 52/75/120 58/72/121 43/69/100
f 43/69/100 58/72/121 57/70/102
s 12
f 53/59/122 45/55/107 63/58/123
f 63/58/123 45/55/107 56/57/108
s 11
f 51/154/118 55/153/119 54/155/124
f 54/155/124 55/153/119 65/156/125
s 14
f 59/82/126 60/79/127 52/75/120
f 52/75/120 60/79/127 58/72/121
s 10
f 54/88/116 61/90/128 59/82/117
f 59/82/117 61/90/128 62/87/129
s 12
f 55/61/130 53/59/122 64/60/131
f 64/60/131 53/59/122 63/58/123
s 14
f 59/82/126 62/87/132 60/79/127
f 60/79/127 62/87/132 69/91/133
s 13
f 58/175/134 64/174/135 57/173/136
f 57/173/136 64/174/135 63/172/137
s 11
f 61/158/138 54/155/124 66/157/139
f 66/157/139 54/155/124 65/156/125
s 10
f 62/87/129 61/90/128 68/92/140
f 68/161/140 61/158/128 67/160/141
s 12
f 55/61/130 64/60/131 65/62/142
f 65/62/142 64/60/131 70/63/143
s 14
f 62/87/132 68/92/144 69/91/133
f 69/91/133 68/92/144 76/93/145
s 13
f 64/174/135 58/175/134 70/176/146
f 70/176/146 58/175/134 60/177/147
s 10
f 68/161/140 67/160/141 71/162/148
f 71/45/148 67/44/141 72/41/149
f 71/94/148 72/98/149 73/97/150
f 73/97/150 72/98/149 74/99/151
s 11
f 67/160/152 61/158/138 75/159/153
f 75/159/153 61/158/138 66/157/139
s 14
f 68/92/144 71/94/154 76/93/145
f 76/93/145 71/94/154 82/95/155
s 12
f 66/65/156 65/62/142 77/64/157
f 77/64/157 65/62/142 70/63/143
s 13
f 69/179/158 77/178/159 60/177/147
f 60/177/147 77/178/159 70/176/146
s 11
f 72/41/160 67/44/152 78/43/161
f 78/43/161 67/44/152 75/46/153
f 74/37/162 72/41/160 79/39/163
f 79/39/163 72/41/160 78/43/161
s 25
f 73/36/164 74/37/165 80/38/166
s 13
f 76/181/167 81/180/168 69/179/158
f 69/179/158 81/180/168 77/178/159
s 25
f 74/37/165 79/39/169 80/38/166
f 83/40/170 73/36/164 80/38/166
s 13
f 76/181/167 82/182/171 81/180/168
f 81/180/168 82/182/171 84/183/172
s 25
f 79/39/169 85/42/173 80/38/166
f 85/42/173 83/40/170 80/38/166
s 13
f 83/185/174 85/184/175 82/182/171
f 82/182/171 85/184/175 84/183/172
s 14
f 87/84/86 40/80/83 39/89/176
s 11
f 36/150/93 29/147/177 45/149/94
f 45/149/94 29/147/177 50/145/178
s 14
f 31/71/99 47/68/101 32/74/84
f 32/74/84 47/68/101 42/78/82
s 12
f 88/56/179 49/54/106 90/53/180
f 49/54/106 50/52/105 90/53/180
f 90/53/180 50/52/105 37/49/76
f 50/52/105 34/50/77 37/49/76
s 13
f 40/164/80 42/166/112 41/165/81
f 41/165/81 42/166/112 91/167/181
f 42/166/112 49/168/114 91/167/181
f 49/168/114 88/170/182 91/167/181
f 57/173/136 63/172/137 47/169/113
f 47/169/113 63/172/137 56/171/115
s 12
f 81/67/183 75/66/184 77/64/157
f 77/64/157 75/66/184 66/65/156
s 14
f 73/97/185 83/96/186 71/94/154
f 71/94/154 83/96/186 82/95/155
s 12
f 78/43/187 75/46/184 84/47/188
f 84/47/188 75/46/184 81/48/183
f 79/100/189 78/101/187 85/102/190
f 85/102/190 78/101/187 84/103/188
s 28
f 18/26/191 16/11/192 89/24/193
f 92/20/194 28/22/195 16/11/192
f 16/11/192 28/22/195 89/24/193
s 29
f 89/24/196 86/29/197 18/26/198
f 18/26/198 86/29/197 22/32/199
f 91/25/200 38/27/201 41/30/202
f 41/30/202 38/27/201 39/33/203
f 38/27/201 22/32/199 39/33/203
f 86/29/197 87/34/204 22/32/199
f 22/32/199 87/34/204 39/33/203
s 11
f 28/148/205 92/146/206 29/147/177
f 29/147/177 92/146/206 50/145/178
f 92/146/206 35/144/75 50/145/178
f 50/145/178 35/144/75 34/143/74
s 31
f 90/19/207 37/16/208 26/8/209
f 37/16/208 33/14/210 26/8/209
f 26/8/209 33/14/210 16/11/211
f 33/14/210 35/17/212 16/11/211
f 16/11/211 35/17/212 92/20/213
s 32
f 26/8/214 48/21/215 90/19/216
f 90/19/216 48/21/215 88/23/217
f 38/27/218 91/25/219 48/21/215
f 48/21/215 91/25/219 88/23/217
